<svg id="Icons" height="512" viewBox="0 0 74 74" width="512" xmlns="http://www.w3.org/2000/svg"><path d="m31.558 55.576a1.015 1.015 0 0 1 -.395-.081 1 1 0 0 1 -.584-1.124l3.167-15.129h-6.09a1 1 0 0 1 -.923-1.385l6.788-16.317a1 1 0 0 1 .923-.616h11.223a1 1 0 0 1 .825 1.565l-6.653 9.722h6.505a1 1 0 0 1 .822 1.569l-14.786 21.365a1 1 0 0 1 -.822.431zm-2.4-18.334h5.822a1 1 0 0 1 .979 1.205l-2.409 11.493 10.886-15.729h-6.493a1 1 0 0 1 -.825-1.565l6.653-9.722h-8.66z"/><path d="m37 72.25a35 35 0 1 1 35-35 35.04 35.04 0 0 1 -35 35zm0-68a33 33 0 1 0 33 33 33.038 33.038 0 0 0 -33-33z"/><path d="m61.759 49.61a1 1 0 0 1 -.905-1.425 24.188 24.188 0 0 0 1.134-2.9 1 1 0 1 1 1.9.61 26.243 26.243 0 0 1 -1.227 3.14 1 1 0 0 1 -.902.575z"/><path d="m37 65.5a28.25 28.25 0 1 1 28.24-28.519 1 1 0 0 1 -.991 1.009h-.009a1 1 0 0 1 -1-.991 26.275 26.275 0 1 0 -13.45 23.159 1 1 0 0 1 .98 1.743 28.143 28.143 0 0 1 -13.77 3.599z"/><path d="m55.95 57.8a1 1 0 0 1 -.686-1.728 22.765 22.765 0 0 0 1.9-2.029 1 1 0 0 1 1.536 1.274 24.408 24.408 0 0 1 -2.065 2.21 1 1 0 0 1 -.685.273z"/></svg>