<?xml version="1.0"?>
<svg xmlns="http://www.w3.org/2000/svg" xmlns:xlink="http://www.w3.org/1999/xlink" xmlns:svgjs="http://svgjs.com/svgjs" version="1.1" width="512" height="512" x="0" y="0" viewBox="0 0 30.148 30.148" style="enable-background:new 0 0 512 512" xml:space="preserve" class=""><g>
<g xmlns="http://www.w3.org/2000/svg">
	<polygon points="18.244,13.006 22.747,0 5.504,17.142 11.901,17.142 6.984,30.148 24.639,13.006  " fill="#009688" data-original="#000000" style="" class=""/>
	<path d="M23.132,2.541l-0.898,2.018c3.064,2.221,5.059,5.815,5.059,9.886c0,6.749-5.471,12.221-12.221,12.221   c-1.135,0-1.957-0.167-3.002-0.456l-1.844,1.754c1.58,0.597,3.061,0.854,4.846,0.854c7.939,0,14.377-6.435,14.377-14.373   C29.447,9.492,26.942,5.127,23.132,2.541z" fill="#009688" data-original="#000000" style="" class=""/>
	<path d="M8.441,24.703C5.079,22.524,2.85,18.748,2.85,14.444c0-6.75,5.473-12.222,12.221-12.222c1.232,0,2.42,0.187,3.539,0.525   L18.597,2.74l1.773-1.649c-1.645-0.65-3.428-1.019-5.301-1.019C7.134,0.072,0.7,6.506,0.7,14.444c0,5.183,2.75,9.71,6.863,12.239   L8.441,24.703z" fill="#009688" data-original="#000000" style="" class=""/>
	<g>
	</g>
	<g>
	</g>
	<g>
	</g>
	<g>
	</g>
	<g>
	</g>
	<g>
	</g>
	<g>
	</g>
	<g>
	</g>
	<g>
	</g>
	<g>
	</g>
	<g>
	</g>
	<g>
	</g>
	<g>
	</g>
	<g>
	</g>
	<g>
	</g>
</g>
<g xmlns="http://www.w3.org/2000/svg">
</g>
<g xmlns="http://www.w3.org/2000/svg">
</g>
<g xmlns="http://www.w3.org/2000/svg">
</g>
<g xmlns="http://www.w3.org/2000/svg">
</g>
<g xmlns="http://www.w3.org/2000/svg">
</g>
<g xmlns="http://www.w3.org/2000/svg">
</g>
<g xmlns="http://www.w3.org/2000/svg">
</g>
<g xmlns="http://www.w3.org/2000/svg">
</g>
<g xmlns="http://www.w3.org/2000/svg">
</g>
<g xmlns="http://www.w3.org/2000/svg">
</g>
<g xmlns="http://www.w3.org/2000/svg">
</g>
<g xmlns="http://www.w3.org/2000/svg">
</g>
<g xmlns="http://www.w3.org/2000/svg">
</g>
<g xmlns="http://www.w3.org/2000/svg">
</g>
<g xmlns="http://www.w3.org/2000/svg">
</g>
</g></svg>
