<svg id="Capa_1" enable-background="new 0 0 512.001 512.001" height="512" viewBox="0 0 512.001 512.001" width="512" xmlns="http://www.w3.org/2000/svg" xmlns:xlink="http://www.w3.org/1999/xlink"><linearGradient id="SVGID_1_" gradientTransform="matrix(1 0 0 -1 0 -18)" gradientUnits="userSpaceOnUse" x1="283.281" x2="235.281" y1="-430.192" y2="-161.526"><stop offset=".0112" stop-color="#dcfced"/><stop offset=".7774" stop-color="#ccddf9"/><stop offset="1" stop-color="#c6d3fc"/></linearGradient><linearGradient id="SVGID_2_" gradientUnits="userSpaceOnUse" x1="145.903" x2="145.903" y1="158.307" y2="330.733"><stop offset=".0028" stop-color="#fc80b7" stop-opacity="0"/><stop offset="1" stop-color="#fc80b7" stop-opacity=".6"/></linearGradient><g><path d="m501.873 144.75c-22.357-56.888-91.226-91.003-149.556-68.427-68.57 26.539-43.27 131.236-104.983 153.088-32.669 11.568-80.963-31.644-113.969-38.27-60.821-12.211-115.881 30.704-129.439 90.134-13.832 60.63 8.353 141.61 74.967 158.066 79.35 19.602 120.683-51.729 187.249-72.211 68.31-21.019 144.263 28.622 200.814-31.776 41.78-44.621 57.055-134.272 34.917-190.604z" fill="url(#SVGID_1_)"/><path d="m252.948 200.798 50.649-44.364c2.106-1.786 2.366-4.941.58-7.047-1.786-2.107-4.94-2.365-7.047-.58l-51.272 44.892c2.369 2.361 4.726 4.733 7.09 7.099z" fill="#315ddb"/><path d="m340.517 388.078-98.541-85.946-7.094 7.094 98.541 85.946z" fill="#fc5fa7"/><path d="m179.937 330.733c47.614 0 86.213-38.599 86.213-86.213s-38.599-86.213-86.213-86.213h-34.034v172.425z" fill="#466ef8"/><circle cx="145.903" cy="244.52" fill="#b7c5fc" r="86.213"/><path d="m393.872 150.861c32.274 0 58.437-26.163 58.437-58.437s-26.163-58.437-58.437-58.437h-29.17v116.875z" fill="#466ef8"/><ellipse cx="364.703" cy="92.424" fill="#2bfcb4" rx="58.437" ry="58.437" transform="matrix(.163 -.987 .987 .163 214.017 437.162)"/><path d="m391.602 478.013c27.25 0 49.34-22.09 49.34-49.34s-22.09-49.34-49.34-49.34h-24.628v98.679h24.628z" fill="#466ef8"/><circle cx="366.973" cy="428.673" fill="#fca8ce" r="49.34"/><path d="m395.32 360.429c-2.761 0-5-2.238-5-5v-180.589c0-2.762 2.239-5 5-5s5 2.238 5 5v180.59c0 2.761-2.239 4.999-5 4.999z" fill="#2bfcb4"/><path d="m252.552 166.69c-1.418 0-2.827-.6-3.816-1.766-1.786-2.106-1.526-5.262.58-7.048l38.37-32.54c2.107-1.785 5.262-1.525 7.047.579 1.786 2.106 1.526 5.262-.58 7.048l-38.37 32.54c-.939.798-2.088 1.187-3.231 1.187z" fill="#9fb1fa"/><path d="m302.897 398.01c-1.143 0-2.292-.39-3.231-1.187l-64.78-54.939c-2.106-1.786-2.366-4.941-.58-7.048 1.787-2.106 4.941-2.364 7.047-.579l64.78 54.939c2.106 1.786 2.366 4.941.58 7.048-.989 1.166-2.398 1.766-3.816 1.766z" fill="#fca8ce"/><path d="m366.323 150.862h9.999v228.471h-9.999z" fill="#1bb376"/><path d="m188.052 417.209c-3.74 0-7.479-1.423-10.326-4.271-5.694-5.693-5.694-14.958 0-20.651 5.694-5.694 14.958-5.695 20.652 0 5.694 5.693 5.694 14.958 0 20.651-2.847 2.848-6.586 4.271-10.326 4.271zm0-19.198c-1.179 0-2.357.449-3.255 1.346-1.795 1.795-1.795 4.716 0 6.511 1.795 1.793 4.714 1.793 6.509 0 1.795-1.795 1.795-4.716 0-6.511-.897-.896-2.076-1.346-3.254-1.346z" fill="#839afa"/><path d="m447.533 297.527c-3.739 0-7.479-1.424-10.326-4.271-2.758-2.758-4.277-6.425-4.277-10.325s1.519-7.567 4.278-10.326c5.692-5.692 14.957-5.694 20.651.001 2.758 2.758 4.277 6.425 4.277 10.325s-1.519 7.567-4.278 10.326v-.001.001c-2.847 2.846-6.587 4.27-10.325 4.27zm0-19.196c-1.179 0-2.357.449-3.254 1.346-.87.87-1.349 2.025-1.349 3.255s.479 2.385 1.348 3.254c1.795 1.795 4.715 1.794 6.509.001v-.001c.869-.869 1.348-2.024 1.348-3.254s-.479-2.385-1.348-3.254c-.898-.898-2.077-1.347-3.254-1.347z" fill="#839afa"/><path d="m266.046 422.826h-3.25v-3.25c0-2.762-2.239-5-5-5s-5 2.238-5 5v3.25h-3.25c-2.761 0-5 2.238-5 5s2.239 5 5 5h3.25v3.25c0 2.762 2.239 5 5 5s5-2.238 5-5v-3.25h3.25c2.761 0 5-2.238 5-5s-2.24-5-5-5z" fill="#27eaa6"/><path d="m483.917 242.75h-3.25v-3.25c0-2.762-2.239-5-5-5s-5 2.238-5 5v3.25h-3.25c-2.761 0-5 2.238-5 5s2.239 5 5 5h3.25v3.25c0 2.762 2.239 5 5 5s5-2.238 5-5v-3.25h3.25c2.761 0 5-2.238 5-5s-2.239-5-5-5z" fill="#fc80b7"/><path d="m238.12 108.424h-3.25v-3.25c0-2.762-2.239-5-5-5s-5 2.238-5 5v3.25h-3.25c-2.761 0-5 2.238-5 5s2.239 5 5 5h3.25v3.25c0 2.762 2.239 5 5 5s5-2.238 5-5v-3.25h3.25c2.761 0 5-2.238 5-5s-2.239-5-5-5z" fill="#fc80b7"/><path d="m373.216 422.826h-1.243v-9.335h5.974c2.761 0 5-2.238 5-5s-2.239-5-5-5h-5.974v-2.199c0-2.762-2.239-5-5-5s-5 2.238-5 5v2.199h-1.243c-8.087 0-14.667 6.58-14.667 14.668s6.58 14.667 14.667 14.667h1.243v9.335h-5.973c-2.761 0-5 2.238-5 5s2.239 5 5 5h5.974v2.199c0 2.762 2.239 5 5 5s5-2.238 5-5v-2.199h1.243c8.088 0 14.667-6.58 14.667-14.668s-6.579-14.667-14.668-14.667zm-12.486 0c-2.573 0-4.667-2.094-4.667-4.667 0-2.574 2.094-4.668 4.667-4.668h1.243v9.335zm12.486 19.335h-1.243v-9.335h1.243c2.574 0 4.667 2.094 4.667 4.668.001 2.573-2.093 4.667-4.667 4.667z" fill="#fddaec"/><path d="m377.987 106.776h-19.008c.537-1.411.818-2.923.818-4.478v-6.312h6.421c2.761 0 5-2.238 5-5s-2.239-5-5-5h-6.421v-6.355c0-2.948 2.398-5.347 5.347-5.347s5.347 2.398 5.347 5.347c0 2.762 2.239 5 5 5s5-2.238 5-5c0-8.462-6.885-15.347-15.347-15.347s-15.347 6.885-15.347 15.347v6.355h-.961c-2.761 0-5 2.238-5 5s2.239 5 5 5h.961v6.312c0 .674-.273 1.334-.75 1.812-2.129 2.129-2.761 5.303-1.608 8.086 1.153 2.782 3.844 4.58 6.855 4.58h23.693c2.761 0 5-2.238 5-5s-2.238-5-5-5z" fill="#fff"/><path d="m177.18 226.926c0-12.459-10.136-22.595-22.595-22.595h-2.656v-2.664c0-2.762-2.239-5-5-5s-5 2.238-5 5v2.664h-7.176v-2.664c0-2.762-2.239-5-5-5s-5 2.238-5 5v2.664h-5.127c-2.761 0-5 2.238-5 5s2.239 5 5 5h5.127v60.379h-5.127c-2.761 0-5 2.238-5 5s2.239 5 5 5h5.127v2.664c0 2.762 2.239 5 5 5s5-2.238 5-5v-2.664h7.176v2.664c0 2.762 2.239 5 5 5s5-2.238 5-5v-2.664h2.656c12.459 0 22.595-10.136 22.595-22.595 0-7.104-3.299-13.45-8.442-17.595 5.143-4.145 8.442-10.49 8.442-17.594zm-10 35.189c0 6.944-5.65 12.595-12.595 12.595h-19.832v-25.19h19.832c6.945 0 12.595 5.651 12.595 12.595zm-32.427-22.595v-25.189h19.832c6.945 0 12.595 5.65 12.595 12.595s-5.65 12.595-12.595 12.595z" fill="#fff"/><circle cx="145.903" cy="244.52" fill="url(#SVGID_2_)" r="86.213"/></g></svg>